<svg width="179" height="52" viewBox="0 0 179 52" fill="none" xmlns="http://www.w3.org/2000/svg">
<g clip-path="url(#clip0_325_48533)">
<path d="M79.8865 33.4022C81.6328 33.4022 83.0635 33.0432 84.1437 32.3371C85.2152 31.6327 85.7597 30.7059 85.7597 29.5802V26.8839C85.7597 25.8087 85.2297 24.929 84.1871 24.2718C83.1417 23.6095 81.7632 23.2742 80.0835 23.2742H77.7667C76.8139 23.2742 75.9074 23.4157 75.0763 23.6921C74.4218 23.9112 73.8657 24.196 73.4139 24.5398V19.5566H71.2622V33.2455H73.3473V32.0288C73.8165 32.381 74.3957 32.6843 75.0705 32.9303C75.9248 33.2404 76.7762 33.3988 77.5987 33.3988H79.8837L79.8865 33.4022ZM79.8518 32.2664H77.6016C76.6401 32.2664 75.7423 32.0338 74.9344 31.5754C74.1177 31.1103 73.6051 30.5559 73.4168 29.9459V27.0659C73.524 26.2738 73.9903 25.625 74.804 25.138C75.6149 24.6543 76.6343 24.41 77.8333 24.41H80.0487C81.1145 24.41 81.9862 24.6375 82.6407 25.0858C83.3038 25.5391 83.6398 26.1441 83.6398 26.8839V29.5802C83.6398 30.3874 83.2807 31.0446 82.5741 31.535C81.8761 32.0203 80.961 32.2681 79.8489 32.2681L79.8518 32.2664Z" fill="#FF6900"/>
<path d="M98.0157 33.4022C99.7764 33.4022 101.219 33.1039 102.296 32.5175C103.376 31.9277 103.924 31.1407 103.924 30.1767V30.0706H101.838V30.1767C101.838 30.7986 101.485 31.3075 100.787 31.6884C100.086 32.0726 99.1538 32.2664 98.0157 32.2664H95.5019C94.3435 32.2664 93.4023 32.0507 92.7044 31.626C92.0006 31.198 91.6444 30.6267 91.6444 29.9273V28.5893H103.987V26.867C103.987 25.7919 103.454 24.9156 102.4 24.2634C101.343 23.6079 99.9357 23.2759 98.2126 23.2759H95.499C93.7122 23.2759 92.2497 23.618 91.1463 24.2921C90.0487 24.9628 89.4927 25.8559 89.4927 26.9445V29.929C89.4927 30.9688 90.0516 31.8164 91.1492 32.4501C92.2497 33.0837 93.7122 33.4056 95.4961 33.4056H98.0099L98.0157 33.4022ZM91.6444 27.4905V26.9412C91.6444 26.1896 92.0006 25.5711 92.7073 25.1043C93.4081 24.6426 94.3464 24.4083 95.499 24.4083H98.2126C99.2986 24.4083 100.188 24.6325 100.857 25.0757C101.529 25.5222 101.87 26.1239 101.87 26.8637V27.4889H91.6444V27.4905Z" fill="#FF6900"/>
<path d="M120.254 36.1692C121.297 35.5171 121.827 34.6155 121.827 33.4881V23.4275H119.71L119.716 29.6105C119.418 30.293 118.806 30.8878 117.897 31.3782C116.996 31.8652 116.075 32.1113 115.157 32.1113H113.072C112.206 32.1113 111.497 31.9209 110.964 31.5434C110.42 31.1608 110.144 30.6553 110.144 30.0419V23.4275H107.996V30.0216C107.996 30.9822 108.468 31.7675 109.4 32.3556C110.333 32.9471 111.569 33.2471 113.072 33.2471H115.224C116.073 33.2471 116.947 33.0752 117.825 32.7382C118.537 32.4635 119.171 32.1113 119.71 31.69V33.4881C119.71 34.2801 119.374 34.9104 118.711 35.3637C118.053 35.812 117.138 36.0395 115.989 36.0395H113.374C112.58 36.0395 111.911 35.9198 111.384 35.6873C110.857 35.4513 110.559 35.1497 110.477 34.7655L110.457 34.6728H108.343L108.363 34.7891C108.479 35.4952 109.001 36.0732 109.919 36.5063C110.828 36.9377 111.989 37.1568 113.374 37.1568H115.989C117.778 37.1568 119.215 36.8248 120.257 36.1709L120.254 36.1692Z" fill="#FF6900"/>
<path d="M139.409 32.3978C140.541 31.7322 141.115 30.8491 141.115 29.7723V26.9041C141.115 25.8272 140.547 24.9442 139.426 24.2785C138.303 23.6112 136.808 23.2742 134.978 23.2742H132.366C130.538 23.2742 129.041 23.6112 127.917 24.2785C126.797 24.9442 126.229 25.8272 126.229 26.9041V29.7723C126.229 30.8491 126.791 31.7322 127.9 32.3961C129.012 33.0635 130.492 33.4005 132.299 33.4005H134.914C136.762 33.4005 138.276 33.0635 139.409 32.3961V32.3978ZM137.874 31.5855C137.13 32.0372 136.133 32.2647 134.911 32.2647H132.296C131.117 32.2647 130.162 32.0372 129.452 31.5872C128.737 31.1339 128.375 30.5239 128.375 29.7723V26.9041C128.375 26.1525 128.743 25.5424 129.47 25.0891C130.191 24.6392 131.164 24.41 132.363 24.41H134.975C136.174 24.41 137.153 24.6392 137.888 25.0891C138.624 25.5408 138.998 26.1508 138.998 26.9041V29.7723C138.998 30.5239 138.618 31.1339 137.874 31.5855Z" fill="#FF6900"/>
<path d="M147.668 26.8788C148.01 26.1508 148.615 25.5509 149.463 25.0942C150.306 24.6409 151.213 24.41 152.151 24.41H154.303C155.166 24.41 155.875 24.6072 156.411 24.9964C156.955 25.3925 157.231 25.9166 157.231 26.5569V33.2471H159.348V26.5755C159.348 25.5896 158.881 24.7858 157.963 24.1859C157.037 23.5809 155.817 23.2742 154.337 23.2742H152.119C151.207 23.2742 150.297 23.4427 149.423 23.773C148.722 24.0376 148.111 24.3847 147.601 24.8094V23.4292H145.519V33.2488H147.671V26.8805L147.668 26.8788Z" fill="#FF6900"/>
<path d="M171.572 33.4022C172.484 33.4022 173.37 33.2371 174.204 32.9118C174.873 32.6506 175.461 32.3085 175.956 31.8889V33.2472H178.041V19.5583H175.924V24.3662C175.513 24.0764 175.012 23.8337 174.424 23.6449C173.66 23.3989 172.869 23.2759 172.07 23.2759H169.556C167.769 23.2759 166.304 23.6348 165.203 24.3409C164.106 25.0453 163.55 25.9789 163.55 27.1181V29.6982C163.55 30.7986 164.077 31.7002 165.119 32.3776C166.165 33.0601 167.543 33.4056 169.223 33.4056H171.572V33.4022ZM166.698 31.5637C166.035 31.0918 165.699 30.4632 165.699 29.6948V27.1148C165.699 26.2974 166.058 25.6335 166.764 25.1414C167.462 24.6561 168.412 24.4083 169.585 24.4083H172.035C172.976 24.4083 173.813 24.6055 174.523 24.9965C175.241 25.3891 175.716 25.9082 175.924 26.5182V29.6173C175.693 30.352 175.14 30.984 174.288 31.4979C173.446 32.0069 172.522 32.2647 171.54 32.2647H169.258C168.201 32.2647 167.364 32.0355 166.701 31.562L166.698 31.5637Z" fill="#FF6900"/>
<path d="M36.0787 46.6696L30.3156 46.0916C29.719 46.0444 29.2296 45.9147 28.8618 45.7074C28.4998 45.5018 28.3203 45.2709 28.3203 45.003V44.3879C28.3203 43.9683 28.5896 43.6396 29.1456 43.3818C29.7075 43.1223 30.4575 42.9908 31.3814 42.9908H34.1934C35.0796 42.9908 35.7688 43.1375 36.2988 43.4425C36.8259 43.7424 37.1126 44.1469 37.156 44.6423L37.1647 44.7434H39.2383V44.6373C39.2383 43.8149 38.7691 43.1408 37.8424 42.6353C36.9185 42.1297 35.6877 41.8752 34.1934 41.8752H31.3814C29.8465 41.8752 28.5896 42.1078 27.6426 42.5645C26.6869 43.0262 26.2033 43.6396 26.2033 44.3879V45.0417C26.2033 45.581 26.5508 46.0562 27.2314 46.4539C27.909 46.8466 28.8155 47.0993 29.9247 47.2055L35.6819 47.7835C36.2148 47.8442 36.655 47.9756 36.9909 48.1762C37.324 48.3784 37.4862 48.5992 37.4862 48.8536V49.6035C37.4862 49.9793 37.1937 50.2793 36.5884 50.5169C35.9715 50.7596 35.1288 50.8843 34.092 50.8843H31.2452C30.2635 50.8843 29.4526 50.7073 28.8415 50.3568C28.2305 50.0063 27.9206 49.5462 27.9206 48.9884V48.8823H25.8384V48.9884C25.8384 49.8867 26.3394 50.6231 27.3327 51.1741C28.3203 51.7235 29.638 52.0033 31.2452 52.0033H34.092C35.7341 52.0033 37.072 51.7859 38.0712 51.3561C39.0877 50.9197 39.6032 50.3366 39.6032 49.6254V48.8166C39.6032 48.2773 39.273 47.8054 38.6243 47.4145C37.9814 47.0269 37.1242 46.7775 36.0758 46.6713L36.0787 46.6696Z" fill="#FF6900"/>
<path d="M47.1994 39.1201H45.0824V42.0271H42.1719V43.1629H45.0824V49.0442C45.0824 50.0317 45.4675 50.7547 46.2292 51.1894C46.988 51.6242 48.2448 51.845 49.9622 51.845H51.5V50.7092H49.8927C48.9109 50.7092 48.2101 50.5811 47.8104 50.3283C47.4021 50.0755 47.1965 49.6424 47.1965 49.0425V43.1612H51.4971V42.0254H47.1965V39.1184L47.1994 39.1201Z" fill="#FF6900"/>
<path d="M64.3091 41.872H61.7258C60.1243 41.872 58.8066 42.1063 57.8075 42.5697C56.7968 43.0382 56.2842 43.6684 56.2842 44.4436V44.5498H58.4359V44.4436C58.4359 43.9987 58.7255 43.655 59.3221 43.3921C59.9274 43.1258 60.7354 42.9893 61.7258 42.9893H64.3091C65.2676 42.9893 66.0583 43.173 66.6577 43.5336C67.2601 43.8959 67.5671 44.3695 67.5671 44.9424V46.6091C67.04 46.4136 66.4261 46.2518 65.7368 46.1305C64.9143 45.9873 64.115 45.9131 63.3505 45.9131H61.1987C59.5943 45.9131 58.2853 46.1541 57.3094 46.631C56.3247 47.113 55.8237 47.7685 55.8237 48.5791V49.3105C55.8237 50.1227 56.3132 50.7816 57.2775 51.267C58.2332 51.7506 59.5191 51.9967 61.1032 51.9967H63.1217C64.0108 51.9967 64.8999 51.8416 65.7629 51.5383C66.4637 51.2906 67.0835 50.9653 67.6047 50.5676V51.8416H69.6551V44.9391C69.6551 44.0156 69.1628 43.264 68.1926 42.7079C67.2254 42.1501 65.9193 41.8687 64.312 41.8687L64.3091 41.872ZM67.5671 47.878V48.8504C67.1443 49.4487 66.5158 49.939 65.702 50.3081C64.8912 50.6772 64.0339 50.8642 63.1536 50.8642H61.1032C60.1359 50.8642 59.3627 50.721 58.8037 50.4379C58.2448 50.1547 57.9726 49.7874 57.9726 49.3138V48.5825C57.9726 48.1106 58.2535 47.7432 58.8356 47.4601C59.4177 47.177 60.2141 47.0321 61.2016 47.0321H63.3534C64.1614 47.0321 64.9694 47.1147 65.7542 47.2764C66.5014 47.4315 67.1095 47.6337 67.57 47.878H67.5671Z" fill="#FF6900"/>
<path d="M84.4536 41.8721H82.2382C81.3259 41.8721 80.4166 42.0406 79.5391 42.3709C78.8353 42.6371 78.2243 42.9843 77.7204 43.4056V42.0254H75.6353V51.845H77.787V45.4767C78.1287 44.7487 78.734 44.1488 79.5825 43.6921C80.4253 43.2388 81.3317 43.0079 82.27 43.0079H84.4218C85.2993 43.0079 85.9885 43.2 86.5301 43.5943C87.0774 43.992 87.3525 44.5161 87.3525 45.1548V51.845H89.4695V45.1734C89.4695 44.1892 89.0033 43.3854 88.0823 42.7838C87.1556 42.1788 85.9364 41.8721 84.4565 41.8721H84.4536Z" fill="#FF6900"/>
<path d="M107.173 42.9639C106.762 42.6724 106.261 42.4314 105.673 42.2427C104.911 41.9966 104.121 41.8736 103.318 41.8736H100.805C99.0179 41.8736 97.5525 42.2326 96.452 42.9387C95.3573 43.6414 94.8013 44.575 94.8013 45.7159V48.2959C94.8013 49.398 95.3283 50.2996 96.368 50.9753C97.4164 51.6562 98.7978 52.0033 100.475 52.0033H102.82C103.735 52.0033 104.622 51.8382 105.456 51.5129C106.122 51.2517 106.71 50.9096 107.208 50.49V51.85H109.29V38.1611H107.173V42.969V42.9639ZM105.774 43.5959C106.492 43.9902 106.965 44.5093 107.173 45.1176V48.2167C106.941 48.9514 106.388 49.5834 105.537 50.0974C104.694 50.6063 103.77 50.8641 102.791 50.8641H100.506C99.4523 50.8641 98.6153 50.6349 97.9521 50.1614C97.289 49.6879 96.9501 49.0593 96.9501 48.2925V45.7125C96.9501 44.8952 97.3092 44.2329 98.0159 43.7391C98.7225 43.247 99.6463 43.0061 100.839 43.0061H103.289C104.231 43.0061 105.068 43.2032 105.777 43.5925L105.774 43.5959Z" fill="#FF6900"/>
<path d="M123.229 41.872H120.648C119.047 41.872 117.729 42.1063 116.73 42.5697C115.716 43.0382 115.204 43.6685 115.204 44.4437V44.5498H117.355V44.4437C117.355 44.0004 117.645 43.6567 118.242 43.3921C118.847 43.1258 119.658 42.9893 120.648 42.9893H123.229C124.202 42.9893 124.969 43.168 125.58 43.5336C126.182 43.8976 126.489 44.3712 126.489 44.9425V46.6091C125.962 46.412 125.345 46.2519 124.656 46.1305C123.834 45.9873 123.034 45.9131 122.27 45.9131H120.118C118.514 45.9131 117.208 46.1541 116.232 46.631C115.244 47.1113 114.743 47.7668 114.743 48.5791V49.3105C114.743 50.1227 115.233 50.7817 116.197 51.267C117.156 51.7506 118.441 51.9967 120.023 51.9967H122.041C122.933 51.9967 123.822 51.8416 124.682 51.5383C125.383 51.2923 126.003 50.967 126.527 50.5676V51.8433H128.575V44.9408C128.575 44.0173 128.082 43.2657 127.115 42.7096C126.145 42.1518 124.839 41.8704 123.231 41.8704L123.229 41.872ZM116.892 48.5825C116.892 48.1106 117.173 47.7433 117.752 47.4601C118.334 47.177 119.131 47.0321 120.118 47.0321H122.27C123.081 47.0321 123.889 47.1147 124.674 47.2765C125.421 47.4315 126.032 47.6337 126.489 47.8781V48.8504C126.061 49.452 125.435 49.9424 124.624 50.3081C123.799 50.6822 122.965 50.8642 122.073 50.8642H120.023C119.058 50.8642 118.285 50.721 117.726 50.4379C117.167 50.1548 116.895 49.7874 116.895 49.3139V48.5825H116.892Z" fill="#FF6900"/>
<path d="M138.635 42.4349C137.897 42.6708 137.289 42.9741 136.82 43.3398V42.027H134.737V51.8467H136.889V45.9266C136.889 45.0991 137.332 44.4166 138.21 43.901C139.084 43.3853 140.225 43.1241 141.604 43.1241H143.043V41.9883H141.636C140.576 41.9883 139.565 42.1383 138.635 42.4349Z" fill="#FF6900"/>
<path d="M158.951 42.9639C158.54 42.6741 158.039 42.4314 157.451 42.2426C156.686 41.9966 155.896 41.8736 155.096 41.8736H152.583C150.796 41.8736 149.33 42.2325 148.23 42.9386C147.132 43.643 146.576 44.5766 146.576 45.7158V48.2959C146.576 49.3963 147.103 50.2979 148.146 50.9753C149.191 51.6578 150.57 52.0033 152.249 52.0033H154.598C155.51 52.0033 156.397 51.8381 157.231 51.5129C157.9 51.2517 158.487 50.9096 158.983 50.49V51.8482H161.068V38.1594H158.951V42.9673V42.9639ZM157.549 43.5959C158.267 43.9885 158.742 44.5075 158.951 45.1176V48.2167C158.719 48.9514 158.166 49.5833 157.315 50.0973C156.472 50.6063 155.548 50.8641 154.566 50.8641H152.284C151.227 50.8641 150.39 50.6349 149.727 50.1614C149.064 49.6895 148.728 49.0609 148.728 48.2925V45.7125C148.728 44.8951 149.087 44.2312 149.794 43.7391C150.492 43.2538 151.441 43.006 152.614 43.006H155.064C156.006 43.006 156.843 43.2032 157.552 43.5942L157.549 43.5959Z" fill="#FF6900"/>
<path d="M178.024 47.4111C177.381 47.0235 176.524 46.7741 175.476 46.6679L169.713 46.0899C169.113 46.0427 168.624 45.9129 168.259 45.7057C167.897 45.5001 167.717 45.2692 167.717 45.0013V44.3862C167.717 43.9682 167.987 43.6379 168.54 43.3801C169.101 43.1206 169.852 42.9891 170.775 42.9891H173.59C174.465 42.9891 175.172 43.1408 175.696 43.4408C176.223 43.7424 176.51 44.1452 176.55 44.6406L176.559 44.7417H178.635V44.6356C178.635 43.8149 178.166 43.1408 177.239 42.6336C176.315 42.128 175.085 41.8735 173.59 41.8735H170.775C169.241 41.8735 167.984 42.1061 167.037 42.5628C166.084 43.0245 165.6 43.6396 165.6 44.3862V45.04C165.6 45.581 165.948 46.0562 166.628 46.4522C167.306 46.8449 168.212 47.0976 169.322 47.2038L175.076 47.7818C175.609 47.8425 176.049 47.9739 176.388 48.1745C176.721 48.375 176.88 48.5958 176.88 48.8519V49.6018C176.88 49.9776 176.588 50.2776 175.982 50.5152C175.366 50.7579 174.529 50.8826 173.489 50.8826H170.642C169.646 50.8826 168.858 50.7107 168.238 50.3551C167.616 50.0012 167.318 49.5546 167.318 48.9867V48.8806H165.232V48.9867C165.232 49.8866 165.736 50.6214 166.73 51.1724C167.717 51.7218 169.035 52.0015 170.642 52.0015H173.489C175.131 52.0015 176.469 51.7842 177.468 51.3544C178.482 50.918 178.997 50.3366 178.997 49.6237V48.8148C178.997 48.2756 178.67 47.8054 178.021 47.4128L178.024 47.4111Z" fill="#FF6900"/>
<path d="M4.40195 6.68336L4.29769 6.64628C3.9241 6.60752 3.51866 6.66145 3.14218 6.62438C3.12191 6.62438 3.10164 6.61764 3.08426 6.61595C2.94815 6.6783 2.78597 6.72717 2.59194 6.7693C2.29075 6.83503 1.94902 6.88221 1.57254 6.91254C1.46828 6.92097 1.13524 6.92266 0.726901 6.91423C0.440195 6.90917 0 6.90749 0 6.9176V6.92266C0 6.98501 0.156385 7.05242 0.191137 7.11814C0.263538 7.25127 0.362002 7.39114 0.399651 7.54281C0.445987 7.73323 0.564724 7.89333 0.726901 8.02983L1.34665 8.50168C1.52331 8.63818 1.72603 8.75278 1.94902 8.84041C1.9664 8.84378 2.00115 8.85557 2.01852 8.86063C2.11989 8.88591 2.24152 8.91961 2.37763 8.96342C2.42686 8.97859 2.45872 8.98365 2.51085 9.0005C2.71647 9.06959 2.93367 9.12689 3.16245 9.17576C3.40282 9.228 3.6345 9.27013 3.8575 9.30552C4.08628 9.34259 4.15579 9.34428 4.15579 9.34428C4.23398 9.33754 4.45697 9.3072 4.89717 9.21789C5.22442 9.15048 5.56325 9.24317 5.84996 9.24654L6.00055 9.25159L6.20906 9.23474C6.42626 9.2162 6.56238 9.08644 6.67532 9.08644C6.69559 9.08644 6.71007 9.07633 6.72455 9.06959C6.7651 9.0342 6.78537 8.96848 6.81723 8.96511C7.23425 8.91455 7.73816 8.84378 8.27392 8.74435L10.3417 8.37024L11.3756 8.17475C11.6217 8.12757 11.8331 8.10229 12.0243 8.08038C12.1807 8.05848 12.3226 8.03994 12.4384 8.02309C12.7743 7.9759 13.0871 7.99107 13.368 7.96748L14.1442 7.90344L14.6857 7.85962L13.9704 12.5647C14.0138 13.6331 14.0428 14.7082 14.0689 15.8137C14.0746 15.9738 14.0804 16.1306 14.0862 16.289C14.1123 17.1316 14.147 17.9657 14.1963 18.7898C14.2021 18.8808 14.205 18.9735 14.2108 19.0645C14.2513 19.3627 14.3092 19.6678 14.3845 19.9812C14.4656 20.3098 14.5148 20.5828 14.5351 20.8103C14.5988 21.3395 14.6712 21.8636 14.7465 22.3759C14.8247 22.8915 14.8942 23.4173 14.9608 23.9532C14.9985 24.0998 14.8913 24.2717 14.6481 24.4436C14.5988 24.479 14.5525 24.5127 14.5119 24.5464C14.7987 24.6458 15.1114 24.7537 15.4445 24.8666C15.9773 25.0452 16.1279 25.0638 16.1453 25.0654C16.1598 25.0048 16.1945 24.9441 16.2496 24.8801C16.3046 24.8177 16.3741 24.7554 16.4552 24.6913L16.7158 24.4925L16.9851 24.6088L17.0257 24.5751C17.1357 24.4891 17.2747 24.415 17.4369 24.3543L17.547 16.8164C17.4746 16.535 17.434 16.1609 17.4282 15.7396C17.4253 15.325 17.4456 14.897 17.4833 14.4504C17.5209 14.0055 17.5788 13.5758 17.6599 13.1646C17.7352 12.7652 17.7844 12.4096 17.8018 12.0962C17.7931 11.803 17.8192 11.4929 17.8771 11.1912C17.935 10.8997 17.9901 10.5947 18.0393 10.2762C18.0683 10.1228 18.0943 9.94589 18.1262 9.7403C18.158 9.52122 18.2102 9.33248 18.2797 9.18081C18.3057 8.88422 18.3144 8.52696 18.2884 8.16633C18.2623 7.79559 18.2449 7.45855 18.2391 7.16027L18.2333 6.99343L18.4969 6.92603C19.6553 6.62438 20.8166 6.3716 21.946 6.17612C23.0697 5.98232 24.315 5.78178 25.679 5.57619C25.8093 5.56439 25.9889 5.53237 26.2901 5.40261C27.072 5.06052 27.4253 5.11107 27.6483 5.23409C27.7207 5.21893 27.8134 5.19365 27.9263 5.165C28.1783 5.09759 28.4447 5.02176 28.7372 4.93413L29.7016 4.64428C29.7711 4.62405 29.8348 4.60383 29.8956 4.58529L29.5423 4.42689L29.5481 4.42351L29.5423 4.42014L29.8811 4.21118C29.9217 4.18927 29.9506 4.16062 29.9738 4.14209C28.6358 4.09153 27.4716 4.06457 26.5015 4.05951C25.4241 4.05614 24.3758 3.91122 23.4635 3.94998C22.5426 3.98874 21.584 3.88257 20.6863 3.95672L4.40195 6.68336Z" fill="#746661"/>
<path d="M28.8384 14.983L29.5131 15.1464C29.6811 15.2897 29.8606 15.4666 30.046 15.6773C30.2487 15.9081 30.3588 16.08 30.3935 16.2216C30.4022 16.2553 30.4051 16.2873 30.353 16.5485C30.3501 16.5637 30.3501 16.5704 30.3472 16.5856C30.3095 16.7709 30.2516 16.9799 30.1792 17.2141C30.1039 17.445 30.0286 17.6691 29.9504 17.8815C29.8375 18.1882 29.7738 18.2876 29.7274 18.3449C29.7216 18.3584 29.6116 18.4983 29.4118 18.7359C29.2264 18.9533 29.0382 19.1858 28.8441 19.4319C28.6414 19.6863 28.4387 19.9223 28.2273 20.1413C27.9319 20.4447 27.6973 20.5778 27.4135 20.6014C27.4048 20.6014 27.399 20.6014 27.3903 20.6014L27.3759 20.6048C27.2311 20.6166 27.1007 20.6098 27.0052 20.593C26.9415 20.6334 26.8691 20.6789 26.7764 20.7413C26.4115 20.989 25.7975 21.2199 25.505 21.3799L24.6131 21.7338L24.4364 21.0058C24.4219 20.9502 24.6884 20.8761 24.9171 20.3789C25.0562 20.0722 25.3805 19.7099 25.6093 19.3274C25.8381 18.9448 26.148 18.5421 26.3999 18.1309C26.6519 17.718 26.9067 17.3608 27.0921 17.0675C27.2803 16.8232 27.6018 16.6311 27.9696 16.2704C28.0651 16.1778 28.1028 16.0766 28.1115 15.9705C28.1549 15.507 28.4387 15.4009 28.821 14.9931L28.8326 14.9796L28.8384 14.983ZM30.5615 13.8101C30.4225 13.8185 30.2922 13.8101 30.1763 13.7865L30.0518 13.7494C29.9302 13.6955 29.8172 13.6146 29.7014 13.4966C29.6666 13.4764 29.6377 13.4562 29.6116 13.4326L28.7833 13.0703C28.4532 12.9253 28.2244 12.831 28.0941 12.7888C28.0014 12.7737 27.8711 12.7686 27.7929 12.7855C27.6626 12.8158 27.3903 12.8579 27.1007 12.7551C26.9588 12.8124 26.7822 12.8748 26.5679 12.9388C26.2059 13.045 25.8352 13.1865 25.4645 13.35C25.1112 13.505 24.8187 13.6854 24.5928 13.8707C24.4625 13.9786 24.4161 14.1016 24.4306 14.2246L24.4856 14.2482C24.587 14.2364 24.7202 14.3645 24.8158 14.3763C24.9229 14.3898 24.9924 14.5178 24.9924 14.5178L25.7512 14.4555L25.4124 14.7386C25.3689 14.7976 25.34 14.7858 25.3544 14.8414C25.3921 14.9947 25.34 15.1077 25.2212 15.2374C25.0706 15.4059 24.8447 15.5408 24.5638 15.6655C24.3959 15.7396 24.2771 15.8171 24.2134 15.9098C24.1497 15.9823 24.1468 15.9974 24.1468 15.9974C24.1902 16.1643 24.0541 16.3159 23.7964 16.3901C23.7269 16.412 23.669 16.4255 23.6168 16.4356C23.5242 16.5991 23.3938 16.7659 23.2288 16.9344C23.0579 17.1046 22.9189 17.2748 22.8117 17.4383L22.7509 17.5006C22.7915 17.7281 22.748 17.8596 22.6206 17.9573C22.5743 18.0214 22.4526 18.2269 22.2934 18.5252C22.2123 18.6786 22.1312 18.842 22.053 19.0173C21.9719 19.1926 21.8937 19.3796 21.8184 19.5785C21.662 19.9779 21.5317 20.3907 21.4303 20.8053C21.329 21.2064 21.3145 21.5451 21.3782 21.813C21.3811 21.8282 21.4101 21.9141 21.6099 22.2259L21.8966 22.6725C22.1514 22.7112 22.4497 22.8225 22.6959 23.0988C22.9218 23.36 23.0608 23.4173 23.0869 23.4258L24.6275 23.9549C25.5659 24.2768 27.0718 24.1268 28.6646 23.3769C28.682 23.3482 28.6964 23.3112 28.708 23.2606C28.7515 23.1056 28.8528 22.9826 29.015 22.9C30.4601 21.9259 31.688 20.8828 32.6206 19.8228C33.5299 18.7915 33.8716 17.7905 33.6457 16.8434C33.5125 16.3008 33.1679 15.7784 32.6177 15.2913C32.0616 14.801 31.3695 14.3021 30.5615 13.805" fill="#746661"/>
<path d="M43.8428 13.6147L44.2106 13.6315L44.3207 14.0798L44.3728 14.2988C44.4018 14.4134 44.2628 14.6106 43.8921 15.1364C43.6372 15.4987 43.3273 15.8678 43.0117 16.2419C42.696 16.6194 42.334 16.9682 42.0183 17.2749C41.694 17.5917 41.4971 17.7619 41.4681 17.7855C41.1206 18.1175 40.6427 18.5438 40.0722 19.0477C39.5017 19.5533 39.0847 20.0268 38.546 20.465L37.1443 21.7187L37.0024 21.7154L37.6975 20.2425C37.906 19.8381 38.1029 19.3763 38.3491 18.8876C38.4331 18.7191 38.4968 18.559 38.5837 18.3821C38.9254 17.6844 39.2671 17.039 39.6117 16.4677C39.7971 16.2638 39.9969 16.0632 40.2489 15.8239C40.4777 15.6082 40.6543 15.3875 40.7788 15.1718C40.9207 14.9274 41.1322 14.6359 41.4362 14.2887C41.7287 13.95 41.9952 13.6804 42.2297 13.4984L43.2318 13.436L43.8399 13.6147H43.8428ZM42.4788 19.1876C43.1536 18.6062 43.9355 18.0669 44.8072 17.5816C44.7898 17.676 45.3024 17.5496 45.2242 17.6726L45.2358 17.6844L45.2242 17.8158C45.2126 18.1613 45.1982 18.5455 45.1895 18.9702C45.1808 19.3932 45.1692 19.8566 45.1634 20.3588C45.1489 21.3598 45.091 22.4299 44.9897 23.5404C44.8912 24.6375 44.7261 25.7632 44.4973 26.8906C44.2685 28.0197 43.9268 29.0746 43.4808 30.0251C43.4026 30.1363 43.3679 30.2138 43.3476 30.2964C43.3215 30.411 43.2897 30.5205 43.2434 30.6267C43.0841 31.0311 42.9103 31.4221 42.7279 31.7962C42.528 32.1939 42.0965 32.6792 41.4044 33.2825C41.2277 33.419 41.0771 33.5926 40.9468 33.8117C40.8281 34.0055 40.634 34.2633 40.2662 34.3644C40.0577 34.4639 39.8087 34.5363 39.5278 34.5801C39.2526 34.624 39.0644 34.6475 38.9601 34.656C38.769 34.6711 38.6242 34.6728 38.5026 34.656L38.3896 34.6745C38.0624 34.7015 37.7264 34.5852 37.1907 34.2616C36.988 34.1369 36.7823 34.0038 36.5796 33.8622C36.374 33.7207 36.1742 33.569 35.9715 33.4106C35.5718 33.0938 35.2272 32.7955 34.9463 32.5225C34.5263 32.1113 34.4771 32.017 34.4597 31.9462C34.3671 31.7945 34.2338 31.567 34.0746 31.3024C33.8487 30.9266 33.8023 30.8087 33.7879 30.7446C33.7531 30.7042 33.7039 30.5525 33.7299 30.0908C33.7502 29.7875 33.7299 29.533 33.6807 29.3291L33.6952 29.2128C33.7039 29.1993 33.7039 29.1858 33.7126 29.1724C33.6662 29.1488 33.6112 29.1218 33.5793 29.0915C33.5243 29.0392 33.6836 28.9651 33.6633 28.9061C33.6546 28.8977 33.8168 28.8774 33.8168 28.869L33.8081 28.8319L33.8023 28.805L33.2839 28.6061C33.2984 28.6668 33.2058 28.7376 33.1681 28.8084C33.1189 28.9044 33.0378 28.9718 33.0233 29.0241L32.838 29.5364L32.6005 29.3847C32.5831 29.4454 32.5599 29.5043 32.5397 29.5701C32.4673 29.811 32.4267 29.9577 32.4238 30.0116L33.1594 32.2613C33.1797 32.2933 33.2666 32.4147 33.5069 32.6489C33.7039 32.8427 33.95 33.0399 34.2367 33.2337L35.065 33.7932C35.1982 33.8808 35.3054 33.9566 35.3922 34.0173C35.4791 34.0796 35.5457 34.1285 35.5863 34.1656C35.7282 34.2347 35.8701 34.3611 35.9454 34.4993C35.9801 34.5616 36.0062 34.5801 36.0062 34.5801C36.2871 34.6846 36.6231 34.8228 36.9706 34.9762C37.2833 35.1143 37.5382 35.2087 37.7149 35.2593C38.2246 35.4345 38.7864 35.5525 39.4264 35.6216L39.5712 35.6368L39.6726 35.7025C39.7131 35.7294 39.7508 35.7547 39.7797 35.7783C39.9593 35.7783 40.2344 35.7783 40.5356 35.7699C40.8802 35.7581 41.0974 35.7497 41.1872 35.7429C41.3001 35.7328 41.416 35.7126 41.526 35.6839C41.7114 35.6334 41.9083 35.5997 42.1081 35.5828C42.0965 35.5828 42.2066 35.5626 42.5136 35.4194C42.8032 35.2829 42.9248 35.1834 42.974 35.1228C43.2578 34.897 43.5214 34.6829 43.8081 34.4386C44.0861 34.2043 44.312 33.987 44.48 33.7948C44.6798 33.6179 44.8043 33.3955 44.8767 33.1123C44.9665 32.7584 45.091 32.4888 45.2619 32.2849C45.3314 32.199 45.4443 32.1113 45.6065 32.0153C45.6731 31.9748 45.6818 31.9462 45.6847 31.9243C45.8121 31.353 46.0264 30.743 46.3247 30.0908C46.6143 29.4639 46.8257 28.901 46.9618 28.4157C47.1733 27.8411 47.3007 27.2293 47.347 26.5839C47.3933 25.9149 47.4571 25.3335 47.5295 24.8397C47.6801 24.1437 47.7872 23.473 47.8596 22.836C47.9291 22.1957 48.016 21.5266 48.1202 20.8273C48.2245 20.1246 48.3085 19.3426 48.3693 18.5C48.433 17.6372 48.5315 16.6126 48.6618 15.4279C48.685 15.2594 48.7023 15.0707 48.7139 14.86C48.7255 14.651 48.7255 14.4573 48.7139 14.2786C48.6995 14.0916 48.6937 13.923 48.6879 13.7714C48.6821 13.6618 48.6792 13.5894 48.6792 13.5557C48.6068 13.3855 48.4301 13.2372 48.1405 13.1024C47.7988 12.9456 47.6105 12.8412 47.5092 12.7569C47.1964 12.6794 46.8692 12.617 46.5332 12.5681C46.093 12.5058 45.6355 12.4148 45.175 12.2968C44.9086 12.189 44.7782 12.0744 44.6914 11.9278C44.6479 11.8519 44.6248 11.7795 44.6248 11.7121C44.4655 11.6278 44.2917 11.5183 44.0919 11.3835C43.95 11.2874 43.8631 11.2419 43.8139 11.2217C42.8987 11.3363 42.1255 11.552 41.5376 11.8621C40.9063 12.1957 40.3184 12.6305 39.7884 13.1529C39.2382 13.6955 38.6879 14.3157 38.1493 14.9982C37.6019 15.6908 36.9677 16.4491 36.2611 17.2547C36.041 17.5091 35.7977 17.8377 35.537 18.227C35.2706 18.6214 35.0331 19.0376 34.8217 19.464C34.6161 19.8836 34.4597 20.3167 34.3613 20.7514C34.2657 21.1711 34.2541 21.5384 34.3294 21.8435C34.4395 22.0474 34.5263 22.2378 34.5756 22.3793C34.5843 22.3996 34.6451 22.5142 35.1171 22.7585C35.204 22.8259 35.259 22.8798 35.2938 22.9338C35.4038 22.9877 35.5081 23.0399 35.6008 23.0939C35.6818 23.141 35.7542 23.1849 35.818 23.2236C36.0989 23.2759 36.4319 23.3163 36.8026 23.35C37.1965 23.3854 37.3818 23.3921 37.4658 23.3921C37.5614 23.3652 37.6801 23.3332 37.8539 23.2893C37.9321 23.2708 38.1435 23.2388 38.213 23.2186C38.1985 23.195 38.2912 23.1613 38.2854 23.1377L38.2622 23.0433L38.2419 22.9708C38.3288 22.8933 38.3578 22.8175 38.4765 22.7315C38.6416 22.6068 38.7748 22.4805 38.9659 22.3406C39.0789 22.2563 39.1484 22.1855 39.2382 22.1131C39.3656 22.0002 39.4583 21.8991 39.522 21.8131L39.5307 21.7626C39.9361 21.4677 40.2894 21.139 40.6949 20.7835C40.7383 20.7447 39.9361 21.3598 39.9824 21.3194L42.4614 19.1859L42.4788 19.1876Z" fill="#746661"/>
<path d="M54.2683 16.6243C54.3088 16.053 54.3494 15.8862 54.3812 15.8053C54.4102 15.7211 54.5202 15.5138 55.111 14.6341C55.5483 13.9786 55.9016 13.4781 56.1739 13.1259C56.4722 12.74 56.9471 12.4046 57.5813 12.1282L58.2706 11.8266L58.2793 12.3288C58.2851 12.922 58.0939 13.4629 57.7088 13.9331C57.3468 14.3763 57.0311 14.7453 56.7618 15.0402C56.4953 15.3352 56.2173 15.625 55.9335 15.9115L54.2017 17.6472L54.2741 16.6243H54.2683ZM59.9734 21.2367C60.0024 21.1727 60.1154 21.0985 60.2862 21.0311L60.486 20.989C60.8046 20.962 61.1145 20.9233 61.3838 20.8778C61.5605 20.8457 61.7342 20.8087 61.9022 20.7682C61.8964 20.5677 61.9659 20.3587 62.0933 20.1447C62.2613 19.8683 62.5914 19.6981 63.0201 19.6509C63.0519 19.5802 63.0809 19.5127 63.1069 19.4453C63.1185 19.415 63.4168 19.3611 63.4313 19.3324C63.2141 19.265 63.2315 19.1639 63.2575 19.0729C63.2025 19.0392 63.1475 19.0089 63.1359 18.9617C63.1793 18.9499 63.2054 18.928 63.2431 18.9145C62.7218 18.9667 62.5914 18.987 62.5914 18.9971C62.6088 19.0038 62.7015 19.0055 62.6928 19.0139C62.7044 19.0156 62.7073 19.019 62.6928 19.0224C62.4756 19.083 62.2092 19.1504 61.9341 19.2162C61.5547 19.3139 61.1637 19.4116 60.8075 19.5077L60.6251 19.5448L60.5295 19.5785H60.3847C60.1501 19.5414 59.985 19.5785 59.875 19.6172C59.8692 19.6206 59.8605 19.624 59.8547 19.6257C59.5796 19.7436 59.2784 19.902 58.9569 19.929L58.2735 19.9846C57.8912 20.0166 57.5669 19.9155 57.3207 19.8548C57.2454 19.843 57.1643 19.8211 57.0774 19.7942C56.8429 19.7335 56.7096 19.6526 56.4171 19.5633C55.9161 19.4116 55.725 19.2195 55.725 19.0224V19.0106C55.725 19.0106 55.5918 19.0038 55.5918 19.0005C55.557 18.8589 55.6034 18.687 55.9103 18.3887C56.1507 18.1595 56.4316 17.8933 56.8139 17.5849C57.1788 17.2934 57.5292 16.9715 57.8912 16.6311C58.259 16.2789 58.6065 15.9705 58.9396 15.716C59.2437 15.4194 59.5738 15.0638 59.9039 14.6813C60.2312 14.3038 60.46 14.0005 60.5874 13.7747C60.6222 13.6281 60.6714 13.4174 60.7235 13.1815C60.7785 12.9506 60.8162 12.7214 60.8365 12.4939C60.8596 12.2597 60.8828 12.0507 60.9031 11.8721C60.9147 11.7996 60.9204 11.7406 60.9233 11.6951C60.9262 11.6496 60.9262 11.6159 60.9233 11.5974C60.8915 11.4744 60.8509 11.439 60.8509 11.4373C60.8075 11.4323 60.6975 11.4053 60.5845 11.3834C60.3499 11.3379 60.1501 11.2351 59.9908 11.0784C59.8692 10.9587 59.7765 10.7801 59.7041 10.5206C59.6694 10.5054 59.6404 10.4902 59.6086 10.4751C59.4782 10.5239 59.3247 10.5357 59.235 10.5442C58.9048 10.5711 58.537 10.47 58.4675 10.1835C58.4559 10.133 58.4328 10.079 58.4009 10.0217C58.204 9.99478 57.9984 9.95434 57.7754 9.90209C57.6682 9.87513 57.5842 9.85996 57.5263 9.84985C57.4452 9.88861 57.3497 9.90883 57.2657 9.92063C57.1759 10.0015 57.0398 10.0824 56.8313 10.1599C56.504 10.2813 56.2376 10.3773 56.0291 10.4515C55.6063 10.6537 55.4151 10.8054 55.3427 10.893C55.1979 11.0615 54.9749 11.2519 54.6824 11.4626C54.5608 11.6598 54.3986 11.862 54.193 12.0642C53.9903 12.2614 53.8281 12.4299 53.7036 12.5664C53.4574 12.8967 53.2373 13.232 53.0664 13.5455C52.8869 13.869 52.7305 14.1471 52.5944 14.383C52.3569 14.8161 52.1368 15.288 51.9399 15.7817C51.7459 16.2654 51.6358 16.6378 51.604 16.8889L51.4447 17.7349C51.3868 18.0332 51.4823 18.4376 51.7227 18.9398C51.882 19.2111 52.021 19.4369 52.1397 19.6206C52.2585 19.8043 52.354 19.9458 52.4293 20.0436C52.5857 20.2458 52.6958 20.3806 52.7566 20.4463L52.8319 20.5003C52.9072 20.5272 53.0462 20.5609 53.2518 20.6098L53.3618 20.6469C54.0192 20.9519 54.5289 21.1642 54.8765 21.2755C55.1834 21.3766 55.6671 21.444 56.3158 21.476L56.478 21.4844L56.7907 21.6732C56.8515 21.6496 56.9037 21.6294 56.979 21.6159C57.0687 21.5973 57.1267 21.5889 57.2251 21.5805C57.2396 21.5805 57.2512 21.5805 57.2657 21.5805C57.2773 21.5788 57.2657 21.3884 57.2801 21.3867C57.3149 21.3833 57.3381 21.1963 57.3728 21.1963H57.3786C57.4916 21.1963 57.6103 21.3833 57.729 21.3884C57.9028 21.3968 58.0534 21.6142 58.0534 21.6546L58.7166 21.5636C58.9251 21.5299 59.3161 21.449 59.5854 21.3547C59.6983 21.3142 59.8808 21.2704 59.985 21.2384" fill="#746661"/>
<path d="M78.5632 10.7328C78.5256 10.6873 78.5082 10.6367 78.5169 10.5794L78.543 10.4261L78.6183 10.4042C78.5835 10.3671 78.5604 10.33 78.5488 10.2913C77.4164 10.4429 76.371 10.5845 75.4124 10.7143C74.2424 10.8744 73.1274 11.0547 72.0964 11.2485C71.9024 11.2822 71.7258 11.3243 71.5607 11.3782C71.3174 11.4557 71.0944 11.5029 70.8859 11.5198C70.773 11.5299 70.4747 11.5535 70.2719 11.4322C69.9823 11.4625 69.7651 11.5012 69.6059 11.5518L69.4582 11.5805C69.2612 11.5973 69.1078 11.6125 68.9977 11.631C68.7834 11.6647 68.5343 11.6512 68.2737 11.5855L68.0478 11.5299L67.9783 11.1844C68.071 10.7699 68.1492 10.3469 68.2216 9.91716C68.2911 9.48913 68.3287 9.08805 68.3345 8.7291C68.6038 7.79214 68.8703 6.87371 69.1396 5.93168C69.4031 5.00146 69.658 4.05943 69.8984 3.10561C69.8665 3.00787 69.7941 2.89159 69.6898 2.75678L69.6146 2.66409L69.6725 2.56804C69.7738 2.39278 69.8491 2.18044 69.8926 1.93272C69.9563 1.58557 69.9447 1.50131 69.9389 1.48783C69.9389 1.48783 69.9244 1.44233 69.7999 1.30583C69.7014 1.19798 69.5827 1.09012 69.4437 0.983956C69.2786 0.860937 69.128 0.734548 68.9948 0.606473C68.8934 0.508732 68.8239 0.427842 68.7805 0.35875C68.3316 0.385713 67.9957 0.170008 67.8827 0.0992298C67.764 0.0250813 67.6887 0.00485902 67.6713 0.00317383C67.6684 0.00317383 67.6047 0.0166554 67.4396 0.0638408C67.2862 0.109341 67.2282 0.14473 67.2051 0.161582C67.0052 0.267749 66.8633 0.380657 66.7649 0.507047C66.6664 0.633436 66.6143 0.773307 66.5998 0.931715C66.5622 1.32774 66.4984 1.67826 66.4029 1.97148C66.2697 2.33043 66.1596 2.69443 66.0756 3.0618C65.9887 3.42917 65.9163 3.76284 65.8642 4.0628C65.7339 4.70149 65.5746 5.35366 65.3893 6.00078C65.2097 6.6243 65.0678 7.25624 64.9635 7.87808C64.9085 8.17805 64.8651 8.55047 64.8303 8.99368C64.7956 9.44025 64.7695 9.89694 64.7521 10.3519C64.7319 10.8137 64.7029 11.2552 64.6566 11.663C64.6102 12.081 64.5494 12.4096 64.4654 12.6354C64.4596 12.7365 64.3786 12.9067 64.2164 13.0466C64.0252 13.21 63.8167 13.36 63.5619 13.3802C63.4402 13.3903 63.2288 13.4426 63.0724 13.4561H63.058C63.0087 13.4628 62.9392 13.3887 62.8871 13.4072C62.8581 13.4426 62.8089 13.4241 62.7684 13.4611C62.8031 13.6465 62.8031 13.8201 62.7828 14.0341C62.7568 14.2919 62.7597 14.3796 62.7626 14.4149C62.7684 14.4149 62.8002 14.4486 62.9045 14.5144L63.4171 14.8497C63.6053 14.9727 63.7878 15.0907 63.976 15.2019C64.254 15.3738 64.3612 15.4699 64.3872 15.5693C64.5813 16.2501 64.6884 16.8602 64.7 17.3775C64.7058 17.6741 64.7348 17.8848 64.7724 18.0364C64.8101 18.1881 64.8535 18.2791 64.8969 18.3364C65.0939 18.7054 65.256 19.0509 65.4066 19.3964C65.4675 19.5362 65.6007 19.6778 65.8121 19.8194C66.0235 19.9609 66.3102 20.1058 66.6693 20.2474C66.8489 20.3266 66.9908 20.4345 67.1153 20.5878C67.1935 20.5794 67.2775 20.5642 67.3672 20.5457C67.3846 20.5423 67.3991 20.5389 67.4136 20.5356C67.457 20.4193 67.5526 20.3064 67.6974 20.2036C67.8074 20.1244 67.8132 20.0873 67.8132 20.0873C67.8016 20.0637 67.7582 20.0047 67.6945 19.9171C67.596 19.7924 67.4976 19.6508 67.3962 19.4975C67.2891 19.3408 67.2051 19.1942 67.1414 19.0627C67.069 18.9228 67.0284 18.8217 67.0139 18.7594C66.9994 18.6987 66.9937 18.5487 67.0081 18.3094C67.0197 18.0971 67.0313 17.846 67.04 17.5578C67.0516 17.2646 67.0747 16.9579 67.1095 16.6343C67.1442 16.3108 67.1819 16.0344 67.2253 15.8052L67.2456 15.7075L67.3701 15.6418C67.541 15.5541 67.735 15.4497 67.9609 15.33C68.1665 15.2205 68.3722 15.1396 68.5807 15.0857C68.6154 15.0351 68.656 14.9879 68.6965 14.9407C68.7776 14.8514 68.8355 14.7941 68.8703 14.7671L68.9977 14.6997C69.3568 14.5767 69.7709 14.4385 70.243 14.2953C70.9467 14.083 71.1031 14.0476 71.2132 14.0375C71.2508 14.0038 71.2971 13.9515 71.3724 13.9229C71.9603 13.7493 72.4845 13.5555 73.0174 13.3903C73.4605 13.2538 73.863 13.0702 74.254 12.9808C74.3061 12.7045 74.6102 12.5107 74.7289 12.5023L74.8621 12.4905L75.0185 12.6657C75.0185 12.6657 75.0272 12.6775 75.033 12.6876C75.0475 12.7112 75.0649 12.7466 75.0764 12.75C75.1054 12.7264 75.1488 12.7331 75.1865 12.6977C75.366 12.5292 75.4935 12.418 75.563 12.327L75.6412 12.2326L75.8236 12.1989C76.2696 12.1079 76.7185 12.0017 77.1587 11.8754C77.3122 11.8332 77.512 11.7776 77.6568 11.7186C77.7002 11.6984 77.7437 11.6799 77.7755 11.658C77.7813 11.6529 77.7958 11.6479 77.8016 11.6428C77.7205 11.6108 77.6944 11.5687 77.6858 11.5181C77.6771 11.4675 77.6858 11.4102 77.6713 11.353L77.6365 11.2063L77.6713 11.1305C77.8856 11.0344 77.9725 10.9485 78.2707 10.844C78.3779 10.8069 78.4793 10.7699 78.5806 10.7328" fill="#746661"/>
<path d="M91.5342 18.5337L91.902 18.3281C92.18 18.1731 92.3914 18.0248 92.5276 17.8916C92.6782 17.745 92.8345 17.6287 93.0083 17.5428C93.017 17.5108 93.0199 17.4703 93.0141 17.4164C92.9938 17.2344 93.0807 17.1148 93.1821 17.0389C93.2921 16.8839 93.4832 16.7642 93.7381 16.6918C93.8568 16.6564 93.9466 16.6143 94.0132 16.562C94.0509 16.5334 94.0827 16.503 94.1117 16.466L93.9669 16.5401L93.518 16.5098C93.2284 16.4525 92.9707 16.3564 92.9243 16.289C92.6347 16.3969 92.4783 16.4946 92.1685 16.6109C91.8122 16.744 91.514 16.9597 91.2301 17.0575C90.7928 17.2091 90.648 17.3372 90.5293 17.3473C90.5293 17.3473 90.5177 17.3473 90.5148 17.349H90.5003C90.3729 17.3608 90.1934 17.2664 90.0341 17.2378C89.9936 17.2479 89.9878 17.2074 89.8922 17.2344L89.6518 17.3692L89.6663 17.4181L89.5244 17.4299L89.2898 17.194C89.0958 17.049 88.951 16.8519 88.8728 16.6749C88.8004 16.5199 88.7512 16.3817 88.7309 16.3025L88.5919 12.3372C88.5108 12.0171 88.3254 11.68 88.0474 11.3784C87.9634 11.2891 87.8389 11.1981 87.6941 11.1104C87.3871 10.925 86.9556 10.743 86.3793 10.5712C86.2577 10.5442 86.0781 10.5391 85.8609 10.561C85.5308 10.6015 85.3165 10.6116 85.0935 10.6082C84.8242 10.5931 84.4853 10.5307 84.4506 10.3875L84.439 10.342L84.3811 10.347C84.3955 10.347 84.3695 10.3605 84.3695 10.3605C84.3347 10.3706 84.1899 10.4583 83.9438 10.6386C83.6252 10.8745 83.2864 11.1526 82.9331 11.4559C82.5739 11.7643 82.2409 12.0558 81.9339 12.3136C81.5256 12.6574 81.4474 12.7484 81.4358 12.767C81.236 12.9507 80.9985 13.1461 80.6915 13.3366C80.4193 13.5068 80.2166 13.6921 80.0747 13.8219C79.9328 13.9314 79.814 14.1353 79.6692 14.3072C79.4405 14.5769 79.1682 14.865 78.8004 14.8954L78.1836 14.9459L82.3828 3.42425C82.4147 3.37201 82.4262 3.30629 82.4436 3.24225C82.4784 3.0889 82.4871 2.90522 82.4929 2.77546C82.5044 2.58671 82.5015 2.45358 82.4813 2.36932C82.4755 2.35247 82.4697 2.33562 82.4639 2.3154C82.4581 2.29181 82.4436 2.25979 82.4349 2.23114C82.3886 2.10643 82.322 1.94128 82.2351 1.74412C82.1251 1.49639 81.9803 1.28574 81.8123 1.13239C81.7312 1.10543 81.6617 1.06498 81.6067 1.0296C81.4184 1.02285 81.2215 0.992521 81.0159 0.945336C80.8508 0.908262 80.7089 0.89141 80.5989 0.899836C79.9791 0.950391 79.8083 1.09869 79.733 1.20486C79.5621 1.45258 79.3536 1.80141 79.1132 2.24462C79.0032 2.53447 78.8526 2.88162 78.6701 3.26248C78.4906 3.63659 78.3226 4.02418 78.1662 4.42357L77.7057 5.5931C77.6391 5.75825 77.5783 5.91328 77.5233 6.06158C77.4683 6.20819 77.419 6.34806 77.3785 6.47782C77.5233 6.63118 77.5638 6.80981 77.503 7.00866C77.3293 7.3912 77.17 7.82092 77.0223 8.30457C76.8717 8.79159 76.779 9.22132 76.7443 9.58195L76.7008 9.67801C76.6516 9.7353 76.585 9.79934 76.4981 9.8718C76.4778 9.9864 76.4344 10.1094 76.3649 10.2425C76.307 10.3521 76.2896 10.4532 76.3099 10.5442C76.3243 10.6015 76.3272 10.6183 76.0434 11.3531C75.8697 11.8098 75.6959 12.3372 75.5221 12.9338C75.3542 13.5152 75.2528 14.287 75.2268 15.224C75.2007 16.1542 75.221 16.7693 75.2905 17.049C75.3078 17.1148 75.36 17.2546 75.525 17.558C75.6554 17.7939 75.7451 18.0012 75.8031 18.1899C76.0405 18.3113 76.2143 18.4511 76.3243 18.6045C76.4025 18.7191 76.501 18.8134 76.6197 18.891C76.8109 19.0241 76.9846 19.1336 77.1439 19.228C77.2337 19.2802 77.3235 19.3375 77.4103 19.3999L77.6218 19.3038C77.8447 19.201 78.0475 19.1404 78.2473 19.1201C79.2522 18.4107 80.1297 17.4653 80.8566 16.3059C81.6385 15.0555 82.6869 14.0932 83.9611 13.4444L84.4766 13.1832L84.8705 13.9803V14.0207C84.8502 14.3308 84.8647 14.6224 84.9168 14.8886C84.9661 15.1583 85.0414 15.4397 85.1427 15.7262C85.3078 16.2873 85.6292 16.8485 86.1013 17.3979C86.1795 17.4602 86.3272 17.5597 86.5125 17.6709C86.7268 17.799 86.8861 17.9186 86.9962 18.0349C87.1497 18.1259 87.2945 18.2337 87.4248 18.3584C87.5117 18.4427 87.587 18.5118 87.6507 18.5691C87.7289 18.591 87.8302 18.6196 87.949 18.6567C88.1343 18.7157 88.3283 18.7713 88.5282 18.8269C88.7251 18.8842 88.922 18.9348 89.119 18.9803C89.2087 19.0022 89.2782 19.0173 89.3246 19.0275C89.5215 19.014 89.7995 19.0056 90.1557 19.0022C90.5119 18.9988 90.7668 18.9921 90.9116 18.9803C90.929 18.9786 91.0767 18.9617 91.4589 18.7679C91.5545 18.7191 91.6443 18.6736 91.7283 18.6331L91.5197 18.5404L91.5342 18.5337Z" fill="#746661"/>
<path d="M94.3956 13.3433C94.4332 12.772 94.4767 12.6035 94.5056 12.5243C94.5375 12.44 94.6475 12.2311 95.2354 11.3514C95.6727 10.6959 96.026 10.1937 96.2982 9.84315C96.5936 9.45724 97.0686 9.12189 97.7028 8.84552L98.3921 8.54387L98.4008 9.04606C98.4066 9.64093 98.2154 10.1802 97.8331 10.6504C97.4711 11.0936 97.1555 11.4626 96.8861 11.7558C96.6197 12.0508 96.3417 12.3423 96.055 12.6271L94.3261 14.3595L94.3956 13.3416V13.3433ZM102.652 15.7211C102.678 15.7278 102.785 15.7278 102.774 15.738C102.785 15.7396 102.788 15.743 102.774 15.7464C102.539 15.8121 102.255 15.8829 101.963 15.9553C101.61 16.0463 101.245 16.139 100.912 16.23L100.758 16.2621L100.651 16.2991L100.503 16.2958C100.338 16.2705 100.133 16.2907 99.9965 16.3379C99.9878 16.3413 99.9762 16.3429 99.9704 16.3463C99.6982 16.4609 99.3999 16.621 99.0755 16.648L98.3921 16.7036C98.0098 16.7356 97.6854 16.6345 97.4393 16.5755C97.364 16.562 97.28 16.5401 97.1931 16.5148C96.9556 16.4542 96.4894 16.3716 96.2027 16.2856C95.7046 16.134 95.1833 15.9419 95.1833 15.7447V15.7329C95.1833 15.7329 95.3802 15.7262 95.3773 15.7228C95.3426 15.5812 95.554 15.4043 95.8638 15.1111C96.1013 14.8836 96.4633 14.6156 96.8456 14.3072C97.2134 14.014 97.6044 13.6938 97.9606 13.3534C98.3284 13.0046 98.6962 12.6979 99.0292 12.44C99.3391 12.1384 99.6808 11.7828 100.008 11.4053C100.335 11.0245 100.57 10.7195 100.694 10.5004C100.729 10.3521 100.781 10.1414 100.836 9.90382C100.888 9.67463 100.929 9.44545 100.949 9.21626C100.975 8.98033 100.996 8.77306 101.019 8.59274C101.027 8.52028 101.033 8.46298 101.039 8.41579C101.039 8.37029 101.045 8.33659 101.039 8.31805C101.01 8.19672 100.967 8.15796 100.967 8.15796C100.923 8.15291 100.816 8.12594 100.703 8.10403C100.469 8.05853 100.269 7.95574 100.109 7.79901C99.9878 7.67768 99.8951 7.49905 99.8227 7.24122C99.788 7.22436 99.7561 7.2092 99.7271 7.19403C99.5997 7.2429 99.4433 7.25638 99.3536 7.26312C99.0234 7.29009 98.6556 7.18897 98.5861 6.90249C98.5745 6.85194 98.5514 6.79801 98.5195 6.74071C98.3226 6.71375 98.1141 6.67331 97.894 6.62106C97.7839 6.5941 97.7028 6.57894 97.642 6.56714C97.5638 6.6059 97.4653 6.62612 97.3814 6.6396C97.2916 6.71881 97.1555 6.80138 96.947 6.8789C96.6226 6.99855 96.3533 7.0946 96.1477 7.16875C95.7219 7.37098 95.5337 7.52264 95.4584 7.60859C95.3107 7.77879 95.0964 7.96585 94.7952 8.17987C94.6736 8.37872 94.5085 8.58094 94.3029 8.7798C94.1002 8.97865 93.938 9.14548 93.8135 9.28367C93.5644 9.61734 93.3472 9.95269 93.1763 10.2611C92.9968 10.5846 92.8404 10.8644 92.7043 11.0986C92.4697 11.53 92.2467 12.0019 92.0527 12.4973C91.8587 12.9793 91.7486 13.3517 91.7168 13.6045L91.5575 14.4505C91.4995 14.7471 91.5951 15.1532 91.8355 15.6554C91.9137 15.7885 91.9861 15.9115 92.0556 16.0244C92.2641 16.3632 92.4263 16.6126 92.5421 16.7592C92.6985 16.9597 92.8057 17.0945 92.8694 17.1603L92.9389 17.2142C93.0171 17.2412 93.159 17.2765 93.3617 17.3237L93.4717 17.3608C94.132 17.6658 94.6446 17.8782 94.9893 17.9894C95.2962 18.0905 95.7799 18.1579 96.4286 18.1899L96.5936 18.1967L96.918 18.3854C96.9962 18.3551 97.0715 18.436 97.1236 18.4258C97.2134 18.4073 97.3061 18.4882 97.4045 18.4882H97.4306C97.4306 18.4882 97.4567 18.3837 97.4682 18.3837C97.613 18.3719 97.8273 18.3146 97.9895 18.323C98.1546 18.3315 98.3834 18.3197 98.6064 18.3382C98.7048 18.345 98.7946 18.3399 98.8699 18.3517C98.9249 18.3601 99.2638 18.3348 99.2638 18.3433L99.2435 18.2657L99.3651 18.2253C99.4202 18.2169 99.4636 18.2 99.5099 18.1882C99.5968 18.1579 99.6518 18.1158 99.8372 18.05C99.9501 18.0113 100.054 17.9759 100.159 17.9439C100.191 17.8798 100.269 17.8074 100.437 17.74L100.619 17.6995C100.941 17.6726 101.239 17.6355 101.508 17.5883C101.685 17.5563 101.853 17.5209 102.021 17.4788C102.018 17.2765 102.082 17.0676 102.209 16.8552C102.38 16.5755 102.701 16.4053 103.136 16.3615C103.168 16.2907 103.194 16.2233 103.223 16.1576C103.234 16.1272 103.492 16.0767 103.506 16.048C103.263 15.9722 103.289 15.8559 103.307 15.7582C103.307 15.7447 103.307 15.7346 103.307 15.7228C103.292 15.7043 103.257 15.6941 103.252 15.6739C103.272 15.6689 103.283 15.6571 103.304 15.652L103.298 15.6318C102.759 15.684 102.638 15.7043 102.641 15.7144" fill="#746661"/>
<path d="M102.591 9.24474C102.609 9.64244 102.623 9.97611 102.643 10.2912C102.727 10.8187 102.762 11.3512 102.748 11.8821C102.733 12.4146 102.684 12.9471 102.609 13.4746C102.635 13.6549 102.632 13.8942 102.609 14.152C102.583 14.4031 102.565 14.6525 102.556 14.9019C102.545 15.1648 102.519 15.3974 102.478 15.6047C102.446 15.7597 102.429 15.8574 102.432 15.9012C102.481 16.0681 102.606 16.2383 102.817 16.4085C103.023 16.5753 103.228 16.7691 103.431 16.9882C103.532 16.9916 103.622 17.0067 103.709 17.0337C103.758 17.0506 103.828 17.0775 103.889 17.123C103.949 17.1685 104.007 17.2326 104.031 17.3185C104.036 17.3471 104.048 17.3657 104.057 17.3792L104.728 17.4803C105.053 17.5291 105.148 17.5308 105.157 17.5291C105.279 17.5173 105.397 17.4921 105.513 17.4533C105.267 17.0977 105.189 16.7068 105.282 16.2855C105.386 15.8254 105.545 15.3856 105.765 14.9794C105.812 14.8935 105.826 14.8059 105.812 14.7064C105.783 14.5278 105.841 14.361 105.982 14.2144L106.376 13.8891C106.437 13.8419 106.472 13.788 106.512 13.7223C106.466 13.6785 106.402 13.6229 106.382 13.5521L106.359 13.4678L106.449 13.3903C106.738 13.0684 106.987 12.7685 107.161 12.4972C107.106 12.4668 107.071 12.4331 107.042 12.396C107.002 12.3438 106.973 12.2646 107.025 12.1669C107.048 12.0742 107.141 11.9882 107.309 11.9377C107.294 11.8871 107.3 11.8332 107.329 11.7793L107.468 11.6158C107.468 11.6158 107.471 11.6124 107.474 11.6107C107.465 11.5147 107.506 11.4203 107.587 11.2906L107.68 11.1709L107.931 11.1473C107.969 11.1423 108.001 11.1204 108.036 11.1204C108.438 10.6165 108.899 10.0688 109.426 9.53122C110.072 8.86725 110.883 8.37181 111.832 8.06173L112.273 7.91681L112.452 8.19486C112.568 8.37686 112.661 8.5319 112.73 8.65829C112.745 8.68357 112.756 8.70716 112.771 8.73075C113.069 8.6802 113.35 8.65323 113.608 8.65155C113.735 8.65155 113.854 8.64818 113.97 8.64481C113.999 8.54707 114.08 8.43753 114.256 8.32125C114.277 8.30946 114.285 8.29766 114.303 8.28586C114.372 8.23699 114.436 8.18812 114.479 8.14094C114.375 8.0651 114.288 7.98758 114.216 7.90669C114.143 7.82749 114.068 7.76514 113.99 7.72132C113.419 7.42641 112.681 7.20902 111.806 7.08601C110.914 6.9613 110.147 6.9276 109.521 6.98658C109.209 7.01691 108.858 7.10791 108.461 7.25958C108.044 7.41967 107.665 7.6101 107.32 7.8258C106.964 8.04994 106.651 8.27575 106.356 8.50157C106.093 8.70548 105.962 8.88579 105.901 9.04251L105.479 10.3148L105.119 9.02061C105.088 8.90938 105.096 8.80659 105.07 8.71222C105.041 8.61448 105.105 8.51505 105.085 8.43079C105.085 8.42742 105.085 8.42573 105.085 8.42405C105.059 8.3162 104.969 8.22014 104.917 8.11397C104.83 7.91849 104.708 7.75671 104.584 7.57303C104.456 7.39103 104.306 7.25284 104.135 7.07252C104.007 6.95119 103.781 6.9158 103.437 6.81132C103.211 6.74223 103.055 6.74897 102.947 6.77256C102.837 6.79784 102.779 6.84165 102.745 6.84502L102.513 6.86693C102.438 6.87367 102.444 7.0978 102.467 7.30845C102.504 7.60842 102.501 7.80727 102.51 8.07184C102.559 8.46955 102.58 8.83524 102.594 9.23968" fill="#746661"/>
</g>
<defs>
<clipPath id="clip0_325_48533">
<rect width="179" height="52" fill="white"/>
</clipPath>
</defs>
</svg>
